<mxfile host="Electron" modified="2023-09-20T08:38:13.191Z" agent="Mozilla/5.0 (Windows NT 10.0; Win64; x64) AppleWebKit/537.36 (KHTML, like Gecko) draw.io/21.6.5 Chrome/114.0.5735.243 Electron/25.3.1 Safari/537.36" etag="JwdMs3kAfoOG9ASLdDaE" version="21.6.5" type="device">
  <diagram name="Page-1" id="JueZqRcHfQc-9jPZHdoH">
    <mxGraphModel dx="1036" dy="614" grid="1" gridSize="10" guides="1" tooltips="1" connect="1" arrows="1" fold="1" page="1" pageScale="1" pageWidth="850" pageHeight="1100" math="0" shadow="0">
      <root>
        <mxCell id="0" />
        <mxCell id="1" parent="0" />
        <mxCell id="2DkVZpPbGmRexS1pFrfV-1" value="&lt;b&gt;&lt;br&gt;Vehicle&lt;/b&gt;" style="swimlane;fontStyle=0;childLayout=stackLayout;horizontal=1;startSize=30;horizontalStack=0;resizeParent=1;resizeParentMax=0;resizeLast=0;collapsible=1;marginBottom=0;whiteSpace=wrap;html=1;" parent="1" vertex="1">
          <mxGeometry x="640" y="60" width="130" height="180" as="geometry" />
        </mxCell>
        <mxCell id="Lb2G6k9IUu81GcVx-Acx-14" value="-whlee&lt;br&gt;-body&lt;br&gt;-color&lt;br&gt;&lt;span style=&quot;background-color: initial;&quot;&gt;-mirror&lt;br&gt;&lt;/span&gt;" style="whiteSpace=wrap;html=1;aspect=fixed;align=left;" parent="2DkVZpPbGmRexS1pFrfV-1" vertex="1">
          <mxGeometry y="30" width="130" height="60" as="geometry" />
        </mxCell>
        <mxCell id="2DkVZpPbGmRexS1pFrfV-2" value="+MoveCar()" style="text;strokeColor=none;fillColor=none;align=left;verticalAlign=middle;spacingLeft=4;spacingRight=4;overflow=hidden;points=[[0,0.5],[1,0.5]];portConstraint=eastwest;rotatable=0;whiteSpace=wrap;html=1;" parent="2DkVZpPbGmRexS1pFrfV-1" vertex="1">
          <mxGeometry y="90" width="130" height="30" as="geometry" />
        </mxCell>
        <mxCell id="2DkVZpPbGmRexS1pFrfV-3" value="+SoundSystem()" style="text;strokeColor=none;fillColor=none;align=left;verticalAlign=middle;spacingLeft=4;spacingRight=4;overflow=hidden;points=[[0,0.5],[1,0.5]];portConstraint=eastwest;rotatable=0;whiteSpace=wrap;html=1;" parent="2DkVZpPbGmRexS1pFrfV-1" vertex="1">
          <mxGeometry y="120" width="130" height="30" as="geometry" />
        </mxCell>
        <mxCell id="Lb2G6k9IUu81GcVx-Acx-42" value="+Clone()" style="text;strokeColor=none;fillColor=none;align=left;verticalAlign=middle;spacingLeft=4;spacingRight=4;overflow=hidden;points=[[0,0.5],[1,0.5]];portConstraint=eastwest;rotatable=0;whiteSpace=wrap;html=1;" parent="2DkVZpPbGmRexS1pFrfV-1" vertex="1">
          <mxGeometry y="150" width="130" height="30" as="geometry" />
        </mxCell>
        <mxCell id="2DkVZpPbGmRexS1pFrfV-5" value="&lt;b&gt;RefulSystem&lt;/b&gt;" style="swimlane;fontStyle=0;childLayout=stackLayout;horizontal=1;startSize=30;horizontalStack=0;resizeParent=1;resizeParentMax=0;resizeLast=0;collapsible=1;marginBottom=0;whiteSpace=wrap;html=1;" parent="1" vertex="1">
          <mxGeometry x="50" y="340" width="195" height="150" as="geometry" />
        </mxCell>
        <mxCell id="VgIFPGB_H0bIDRrrUODJ-4" value="-_RefulLiter" style="rounded=0;whiteSpace=wrap;html=1;align=left;" vertex="1" parent="2DkVZpPbGmRexS1pFrfV-5">
          <mxGeometry y="30" width="195" height="30" as="geometry" />
        </mxCell>
        <mxCell id="2DkVZpPbGmRexS1pFrfV-7" value="+GetRefulSystem() :double" style="text;strokeColor=none;fillColor=none;align=left;verticalAlign=middle;spacingLeft=4;spacingRight=4;overflow=hidden;points=[[0,0.5],[1,0.5]];portConstraint=eastwest;rotatable=0;whiteSpace=wrap;html=1;" parent="2DkVZpPbGmRexS1pFrfV-5" vertex="1">
          <mxGeometry y="60" width="195" height="30" as="geometry" />
        </mxCell>
        <mxCell id="VgIFPGB_H0bIDRrrUODJ-1" value="+RefulSystem()" style="text;strokeColor=none;fillColor=none;align=left;verticalAlign=middle;spacingLeft=4;spacingRight=4;overflow=hidden;points=[[0,0.5],[1,0.5]];portConstraint=eastwest;rotatable=0;whiteSpace=wrap;html=1;" vertex="1" parent="2DkVZpPbGmRexS1pFrfV-5">
          <mxGeometry y="90" width="195" height="30" as="geometry" />
        </mxCell>
        <mxCell id="VgIFPGB_H0bIDRrrUODJ-6" value="+RefulSystem(double unit)" style="text;strokeColor=none;fillColor=none;align=left;verticalAlign=middle;spacingLeft=4;spacingRight=4;overflow=hidden;points=[[0,0.5],[1,0.5]];portConstraint=eastwest;rotatable=0;whiteSpace=wrap;html=1;" vertex="1" parent="2DkVZpPbGmRexS1pFrfV-5">
          <mxGeometry y="120" width="195" height="30" as="geometry" />
        </mxCell>
        <mxCell id="Lb2G6k9IUu81GcVx-Acx-1" value="&lt;b&gt;Car&lt;/b&gt;" style="swimlane;fontStyle=0;childLayout=stackLayout;horizontal=1;startSize=30;horizontalStack=0;resizeParent=1;resizeParentMax=0;resizeLast=0;collapsible=1;marginBottom=0;whiteSpace=wrap;html=1;" parent="1" vertex="1">
          <mxGeometry x="570" y="320" width="270" height="200" as="geometry" />
        </mxCell>
        <mxCell id="Lb2G6k9IUu81GcVx-Acx-41" value="-price&lt;br&gt;-steeringwheel&lt;br&gt;-weight" style="rounded=0;whiteSpace=wrap;html=1;align=left;" parent="Lb2G6k9IUu81GcVx-Acx-1" vertex="1">
          <mxGeometry y="30" width="270" height="50" as="geometry" />
        </mxCell>
        <mxCell id="Lb2G6k9IUu81GcVx-Acx-2" value="+Car(pric,steeringWheel,weight)" style="text;strokeColor=none;fillColor=none;align=left;verticalAlign=middle;spacingLeft=4;spacingRight=4;overflow=hidden;points=[[0,0.5],[1,0.5]];portConstraint=eastwest;rotatable=0;whiteSpace=wrap;html=1;" parent="Lb2G6k9IUu81GcVx-Acx-1" vertex="1">
          <mxGeometry y="80" width="270" height="30" as="geometry" />
        </mxCell>
        <mxCell id="Lb2G6k9IUu81GcVx-Acx-3" value="+Car(Vehicle)" style="text;strokeColor=none;fillColor=none;align=left;verticalAlign=middle;spacingLeft=4;spacingRight=4;overflow=hidden;points=[[0,0.5],[1,0.5]];portConstraint=eastwest;rotatable=0;whiteSpace=wrap;html=1;" parent="Lb2G6k9IUu81GcVx-Acx-1" vertex="1">
          <mxGeometry y="110" width="270" height="30" as="geometry" />
        </mxCell>
        <mxCell id="Lb2G6k9IUu81GcVx-Acx-4" value="+Clone():Car" style="text;strokeColor=none;fillColor=none;align=left;verticalAlign=middle;spacingLeft=4;spacingRight=4;overflow=hidden;points=[[0,0.5],[1,0.5]];portConstraint=eastwest;rotatable=0;whiteSpace=wrap;html=1;" parent="Lb2G6k9IUu81GcVx-Acx-1" vertex="1">
          <mxGeometry y="140" width="270" height="30" as="geometry" />
        </mxCell>
        <mxCell id="Lb2G6k9IUu81GcVx-Acx-43" value="+SetEnergySystem(IAdpater adpater)" style="text;strokeColor=none;fillColor=none;align=left;verticalAlign=middle;spacingLeft=4;spacingRight=4;overflow=hidden;points=[[0,0.5],[1,0.5]];portConstraint=eastwest;rotatable=0;whiteSpace=wrap;html=1;" parent="Lb2G6k9IUu81GcVx-Acx-1" vertex="1">
          <mxGeometry y="170" width="270" height="30" as="geometry" />
        </mxCell>
        <mxCell id="Lb2G6k9IUu81GcVx-Acx-9" value="&lt;b&gt;RefulSystemAdapter&lt;/b&gt;" style="swimlane;fontStyle=0;childLayout=stackLayout;horizontal=1;startSize=30;horizontalStack=0;resizeParent=1;resizeParentMax=0;resizeLast=0;collapsible=1;marginBottom=0;whiteSpace=wrap;html=1;" parent="1" vertex="1">
          <mxGeometry x="280" y="500" width="270" height="130" as="geometry" />
        </mxCell>
        <mxCell id="Lb2G6k9IUu81GcVx-Acx-26" value="- _refulSystem:RegulSystem" style="whiteSpace=wrap;html=1;aspect=fixed;align=left;" parent="Lb2G6k9IUu81GcVx-Acx-9" vertex="1">
          <mxGeometry y="30" width="270" height="40" as="geometry" />
        </mxCell>
        <mxCell id="Lb2G6k9IUu81GcVx-Acx-27" value="+RefulSystemAdapter(RefulSystem refulSystem)" style="text;strokeColor=none;fillColor=none;align=left;verticalAlign=middle;spacingLeft=4;spacingRight=4;overflow=hidden;points=[[0,0.5],[1,0.5]];portConstraint=eastwest;rotatable=0;whiteSpace=wrap;html=1;" parent="Lb2G6k9IUu81GcVx-Acx-9" vertex="1">
          <mxGeometry y="70" width="270" height="30" as="geometry" />
        </mxCell>
        <mxCell id="Lb2G6k9IUu81GcVx-Acx-11" value="+GetEnergySystem():double" style="text;strokeColor=none;fillColor=none;align=left;verticalAlign=middle;spacingLeft=4;spacingRight=4;overflow=hidden;points=[[0,0.5],[1,0.5]];portConstraint=eastwest;rotatable=0;whiteSpace=wrap;html=1;" parent="Lb2G6k9IUu81GcVx-Acx-9" vertex="1">
          <mxGeometry y="100" width="270" height="30" as="geometry" />
        </mxCell>
        <mxCell id="Lb2G6k9IUu81GcVx-Acx-16" value="&lt;b&gt;&amp;lt;&amp;lt;interface&amp;gt;&amp;gt;&lt;br&gt;IAdapater&lt;/b&gt;" style="swimlane;fontStyle=0;childLayout=stackLayout;horizontal=1;startSize=30;horizontalStack=0;resizeParent=1;resizeParentMax=0;resizeLast=0;collapsible=1;marginBottom=0;whiteSpace=wrap;html=1;" parent="1" vertex="1">
          <mxGeometry x="310" y="310" width="180" height="60" as="geometry" />
        </mxCell>
        <mxCell id="Lb2G6k9IUu81GcVx-Acx-18" value="+getEnergySystem()" style="text;strokeColor=none;fillColor=none;align=left;verticalAlign=middle;spacingLeft=4;spacingRight=4;overflow=hidden;points=[[0,0.5],[1,0.5]];portConstraint=eastwest;rotatable=0;whiteSpace=wrap;html=1;" parent="Lb2G6k9IUu81GcVx-Acx-16" vertex="1">
          <mxGeometry y="30" width="180" height="30" as="geometry" />
        </mxCell>
        <mxCell id="Lb2G6k9IUu81GcVx-Acx-31" value="&lt;b&gt;ChargingSystem&lt;/b&gt;" style="swimlane;fontStyle=0;childLayout=stackLayout;horizontal=1;startSize=30;horizontalStack=0;resizeParent=1;resizeParentMax=0;resizeLast=0;collapsible=1;marginBottom=0;whiteSpace=wrap;html=1;" parent="1" vertex="1">
          <mxGeometry x="52.5" y="160" width="190" height="150" as="geometry" />
        </mxCell>
        <mxCell id="VgIFPGB_H0bIDRrrUODJ-5" value="-_Percent" style="rounded=0;whiteSpace=wrap;html=1;align=left;" vertex="1" parent="Lb2G6k9IUu81GcVx-Acx-31">
          <mxGeometry y="30" width="190" height="30" as="geometry" />
        </mxCell>
        <mxCell id="VgIFPGB_H0bIDRrrUODJ-11" value="+GetChargingSystem() :double" style="text;strokeColor=none;fillColor=none;align=left;verticalAlign=middle;spacingLeft=4;spacingRight=4;overflow=hidden;points=[[0,0.5],[1,0.5]];portConstraint=eastwest;rotatable=0;whiteSpace=wrap;html=1;" vertex="1" parent="Lb2G6k9IUu81GcVx-Acx-31">
          <mxGeometry y="60" width="190" height="30" as="geometry" />
        </mxCell>
        <mxCell id="VgIFPGB_H0bIDRrrUODJ-13" value="+ChargingSystem(double unit)" style="text;strokeColor=none;fillColor=none;align=left;verticalAlign=middle;spacingLeft=4;spacingRight=4;overflow=hidden;points=[[0,0.5],[1,0.5]];portConstraint=eastwest;rotatable=0;whiteSpace=wrap;html=1;" vertex="1" parent="Lb2G6k9IUu81GcVx-Acx-31">
          <mxGeometry y="90" width="190" height="30" as="geometry" />
        </mxCell>
        <mxCell id="VgIFPGB_H0bIDRrrUODJ-12" value="+ChargingSystem()" style="text;strokeColor=none;fillColor=none;align=left;verticalAlign=middle;spacingLeft=4;spacingRight=4;overflow=hidden;points=[[0,0.5],[1,0.5]];portConstraint=eastwest;rotatable=0;whiteSpace=wrap;html=1;" vertex="1" parent="Lb2G6k9IUu81GcVx-Acx-31">
          <mxGeometry y="120" width="190" height="30" as="geometry" />
        </mxCell>
        <mxCell id="Lb2G6k9IUu81GcVx-Acx-35" value="&lt;b&gt;ChargingSystemAdapter&lt;/b&gt;" style="swimlane;fontStyle=0;childLayout=stackLayout;horizontal=1;startSize=30;horizontalStack=0;resizeParent=1;resizeParentMax=0;resizeLast=0;collapsible=1;marginBottom=0;whiteSpace=wrap;html=1;" parent="1" vertex="1">
          <mxGeometry x="255" y="10" width="340" height="140" as="geometry" />
        </mxCell>
        <mxCell id="Lb2G6k9IUu81GcVx-Acx-36" value="-ChargingAdapeter:ChargingSystem" style="whiteSpace=wrap;html=1;aspect=fixed;align=left;" parent="Lb2G6k9IUu81GcVx-Acx-35" vertex="1">
          <mxGeometry y="30" width="340" height="40" as="geometry" />
        </mxCell>
        <mxCell id="Lb2G6k9IUu81GcVx-Acx-37" value="+ChargingSystemAdapter(ChargingSystem chargingSystem)" style="text;strokeColor=none;fillColor=none;align=left;verticalAlign=middle;spacingLeft=4;spacingRight=4;overflow=hidden;points=[[0,0.5],[1,0.5]];portConstraint=eastwest;rotatable=0;whiteSpace=wrap;html=1;" parent="Lb2G6k9IUu81GcVx-Acx-35" vertex="1">
          <mxGeometry y="70" width="340" height="40" as="geometry" />
        </mxCell>
        <mxCell id="rumaOjwH0Crvt4TeQ22k-1" value="+GetEnergySystem():double" style="text;strokeColor=none;fillColor=none;align=left;verticalAlign=middle;spacingLeft=4;spacingRight=4;overflow=hidden;points=[[0,0.5],[1,0.5]];portConstraint=eastwest;rotatable=0;whiteSpace=wrap;html=1;" parent="Lb2G6k9IUu81GcVx-Acx-35" vertex="1">
          <mxGeometry y="110" width="340" height="30" as="geometry" />
        </mxCell>
        <mxCell id="Lb2G6k9IUu81GcVx-Acx-47" value="" style="endArrow=block;html=1;rounded=0;endFill=0;strokeWidth=1;startSize=6;endSize=15;" parent="1" source="Lb2G6k9IUu81GcVx-Acx-1" edge="1">
          <mxGeometry width="50" height="50" relative="1" as="geometry">
            <mxPoint x="610" y="320" as="sourcePoint" />
            <mxPoint x="700" y="243" as="targetPoint" />
          </mxGeometry>
        </mxCell>
        <mxCell id="Lb2G6k9IUu81GcVx-Acx-48" value="" style="endArrow=open;html=1;rounded=0;exitX=0;exitY=0.5;exitDx=0;exitDy=0;endFill=0;startSize=9;endSize=13;" parent="1" source="Lb2G6k9IUu81GcVx-Acx-26" edge="1">
          <mxGeometry width="50" height="50" relative="1" as="geometry">
            <mxPoint x="230" y="590" as="sourcePoint" />
            <mxPoint x="135" y="490" as="targetPoint" />
            <Array as="points">
              <mxPoint x="135" y="550" />
            </Array>
          </mxGeometry>
        </mxCell>
        <mxCell id="Lb2G6k9IUu81GcVx-Acx-50" value="" style="endArrow=open;html=1;rounded=0;endFill=0;startSize=9;endSize=12;" parent="1" edge="1">
          <mxGeometry width="50" height="50" relative="1" as="geometry">
            <mxPoint x="250" y="110" as="sourcePoint" />
            <mxPoint x="120" y="160" as="targetPoint" />
            <Array as="points">
              <mxPoint x="120" y="110" />
            </Array>
          </mxGeometry>
        </mxCell>
        <mxCell id="Lb2G6k9IUu81GcVx-Acx-51" value="" style="endArrow=block;dashed=1;html=1;dashPattern=1 1;strokeWidth=2;rounded=0;entryX=0.5;entryY=0;entryDx=0;entryDy=0;endFill=0;endSize=15;exitX=0.416;exitY=0.967;exitDx=0;exitDy=0;exitPerimeter=0;" parent="1" source="rumaOjwH0Crvt4TeQ22k-1" target="Lb2G6k9IUu81GcVx-Acx-16" edge="1">
          <mxGeometry width="50" height="50" relative="1" as="geometry">
            <mxPoint x="395.51724137931024" y="180" as="sourcePoint" />
            <mxPoint x="270" y="280" as="targetPoint" />
          </mxGeometry>
        </mxCell>
        <mxCell id="Lb2G6k9IUu81GcVx-Acx-53" value="" style="endArrow=block;dashed=1;html=1;dashPattern=1 1;strokeWidth=2;rounded=0;exitX=0.455;exitY=-0.008;exitDx=0;exitDy=0;exitPerimeter=0;endFill=0;endSize=15;" parent="1" source="Lb2G6k9IUu81GcVx-Acx-9" target="Lb2G6k9IUu81GcVx-Acx-18" edge="1">
          <mxGeometry width="50" height="50" relative="1" as="geometry">
            <mxPoint x="408" y="158" as="sourcePoint" />
            <mxPoint x="370" y="410" as="targetPoint" />
          </mxGeometry>
        </mxCell>
        <mxCell id="l-pYA86LBwO3sfyyFi0A-8" value="" style="endArrow=open;html=1;rounded=0;endFill=0;endSize=13;exitX=0;exitY=0.5;exitDx=0;exitDy=0;entryX=1.02;entryY=0.127;entryDx=0;entryDy=0;entryPerimeter=0;" parent="1" source="Lb2G6k9IUu81GcVx-Acx-2" edge="1" target="Lb2G6k9IUu81GcVx-Acx-18">
          <mxGeometry width="50" height="50" relative="1" as="geometry">
            <mxPoint x="470" y="450" as="sourcePoint" />
            <mxPoint x="490" y="368" as="targetPoint" />
            <Array as="points">
              <mxPoint x="520" y="415" />
              <mxPoint x="520" y="344" />
            </Array>
          </mxGeometry>
        </mxCell>
        <mxCell id="VgIFPGB_H0bIDRrrUODJ-15" value="var result = Math.Abs((this.Weight + adpater.GetEnergySystem()) / 100);" style="text;whiteSpace=wrap;fillColor=#f5f5f5;fontColor=#333333;strokeColor=#666666;" vertex="1" parent="1">
          <mxGeometry x="580" y="570" width="420" height="40" as="geometry" />
        </mxCell>
        <mxCell id="VgIFPGB_H0bIDRrrUODJ-16" value="" style="endArrow=none;dashed=1;html=1;dashPattern=1 3;strokeWidth=2;rounded=0;exitX=0.291;exitY=-0.075;exitDx=0;exitDy=0;exitPerimeter=0;" edge="1" parent="1" source="VgIFPGB_H0bIDRrrUODJ-15" target="Lb2G6k9IUu81GcVx-Acx-43">
          <mxGeometry width="50" height="50" relative="1" as="geometry">
            <mxPoint x="830" y="550" as="sourcePoint" />
            <mxPoint x="880" y="500" as="targetPoint" />
          </mxGeometry>
        </mxCell>
      </root>
    </mxGraphModel>
  </diagram>
</mxfile>
